# Blender 4.2.14 LTS
# www.blender.org
mtllib dadoOBJ.mtl
g Cube_Malla
v -1.000000 1.000000 1.000000
v -1.000000 -1.000000 1.000000
v -1.000000 1.000000 -1.000000
v -1.000000 -1.000000 -1.000000
v 1.000000 1.000000 1.000000
v 1.000000 -1.000000 1.000000
v 1.000000 1.000000 -1.000000
v 1.000000 -1.000000 -1.000000
vn -0.0000 1.0000 -0.0000
vn -0.0000 -0.0000 -1.0000
vn 1.0000 -0.0000 -0.0000
vn -0.0000 -1.0000 -0.0000
vn -1.0000 -0.0000 -0.0000
vn -0.0000 -0.0000 1.0000
vt 0.248169 0.658496
vt 0.498475 0.336041
vt 0.499414 0.657056
vt 0.741065 0.332533
vt 0.500244 -0.001433
vt 0.741743 -0.000498
vt 0.247784 0.334259
vt -0.002190 0.663200
vt -0.003793 0.336680
vt 0.751939 0.661759
vt 0.997397 0.334632
vt 0.997946 0.660228
vt 0.502274 0.654789
vt 0.746250 0.338866
vt 0.745421 0.652693
vt 0.499190 0.668060
vt 0.750886 0.989339
vt 0.500887 0.990258
vt 0.247229 0.337480
vt 0.499566 0.331598
vt 0.249387 0.660779
vt 0.751390 0.336163
vt 0.503104 0.340962
vt 0.749189 0.667141
s 0
g off
g Cube_Material
usemtl Material
f 5/1/1 3/2/1 1/3/1
f 3/4/2 8/5/2 4/6/2
f 7/7/3 6/8/3 8/9/3
f 2/10/4 8/11/4 6/12/4
f 1/13/5 4/14/5 2/15/5
f 5/16/6 2/17/6 6/18/6
f 5/1/1 7/19/1 3/2/1
f 3/4/2 7/20/2 8/5/2
f 7/7/3 5/21/3 6/8/3
f 2/10/4 4/22/4 8/11/4
f 1/13/5 3/23/5 4/14/5
f 5/16/6 1/24/6 2/17/6
