# Blender 4.2.15 LTS
# www.blender.org
mtllib PuertaAlienPanelIzquierdo.mtl
g Plane_Malla
v -8.867370 -1.199224 -1.437928
v -7.451744 6.302727 -1.437928
v -8.867370 4.802337 -1.437928
v -8.867370 3.301947 -1.437928
v -8.867370 1.801557 -1.437928
v -8.867370 0.301166 -1.437928
v -4.599058 -1.199224 -1.437928
v -4.239861 -1.199224 -1.437928
v -3.866182 6.302727 -1.437928
v -3.506985 6.302727 -1.437928
v -4.599215 0.301166 -1.437928
v -4.239861 0.301166 -1.437928
v -4.599693 1.801557 -1.437928
v -4.239861 1.801557 -1.437928
v -3.866817 3.301947 -1.437928
v -3.506985 3.301947 -1.437928
v -3.866339 4.802337 -1.437928
v -3.506985 4.802337 -1.437928
v -3.549120 6.271005 -1.437928
v -3.549120 4.802337 -1.437928
v -3.824052 6.271005 -1.437928
v -3.824203 4.802332 -1.437928
v -4.281996 0.301166 -1.437928
v -4.281996 -1.167501 -1.437928
v -4.556927 -1.167501 -1.437928
v -4.557079 0.301172 -1.437928
v -4.281996 1.807205 -1.437928
v -4.557557 1.795912 -1.437928
v -3.549120 3.307595 -1.437928
v -3.824685 3.296295 -1.437928
v -3.744541 3.899161 -1.457735
v -3.744541 4.255363 -1.457735
v -8.843685 3.899161 -1.457735
v -8.843685 4.255363 -1.457735
v -4.279151 1.863395 -1.457735
v -4.279151 2.219597 -1.457735
v -8.843685 1.863395 -1.457735
v -8.843685 2.219597 -1.457735
v -4.382332 -0.254458 -1.457735
v -4.382332 0.101744 -1.457735
v -8.843685 -0.254458 -1.457735
v -8.843685 0.101744 -1.457735
v -3.572945 6.271005 -1.262777
v -3.549120 6.271005 -1.284796
v -3.572958 4.802337 -1.262777
v -3.549120 4.802337 -1.284796
v -3.824203 4.802332 -1.284796
v -3.800365 4.802332 -1.262777
v -3.824052 6.271005 -1.284796
v -3.800226 6.271005 -1.262777
v -4.281996 0.301166 -1.284797
v -4.305834 0.301167 -1.262778
v -4.281996 -1.167501 -1.284797
v -4.305820 -1.167501 -1.262778
v -4.533103 -1.167501 -1.262778
v -4.556927 -1.167501 -1.284797
v -4.533241 0.301171 -1.262778
v -4.557079 0.301172 -1.284797
v -4.281996 1.807205 -1.284796
v -4.305874 1.806226 -1.262777
v -4.533678 1.796891 -1.262777
v -4.557557 1.795912 -1.284796
v -3.549120 3.307595 -1.284796
v -3.572998 3.306616 -1.262777
v -3.800806 3.297274 -1.262777
v -3.824685 3.296295 -1.284796
v -3.744541 3.914721 -1.308231
v -3.744541 3.899161 -1.327601
v -3.744541 4.255363 -1.327601
v -3.744541 4.239802 -1.308231
v -8.843685 3.899161 -1.327601
v -8.843685 3.914721 -1.308231
v -8.843685 4.239802 -1.308231
v -8.843685 4.255363 -1.327601
v -4.279151 1.878955 -1.308231
v -4.279151 1.863395 -1.327601
v -4.279151 2.219597 -1.327601
v -4.279151 2.204037 -1.308231
v -8.843685 1.863395 -1.327601
v -8.843685 1.878955 -1.308231
v -8.843685 2.204037 -1.308231
v -8.843685 2.219597 -1.327601
v -4.382332 -0.238898 -1.308231
v -4.382332 -0.254458 -1.327601
v -4.382332 0.101744 -1.327601
v -4.382332 0.086184 -1.308231
v -8.843685 -0.254458 -1.327601
v -8.843685 -0.238898 -1.308231
v -8.843685 0.086184 -1.308231
v -8.843685 0.101744 -1.327601
vn -0.0000 -0.0000 1.0000
vn -1.0000 0.0003 -0.0000
vn -1.0000 -0.0003 -0.0000
vn 1.0000 -0.0000 -0.0000
vn 0.8985 -0.4389 -0.0000
vn -1.0000 0.0001 -0.0000
vn -0.8985 0.4389 -0.0000
vn -0.0000 -1.0000 -0.0000
vn -1.0000 -0.0001 -0.0000
vn -0.0000 -0.0000 -1.0000
vn -0.0000 1.0000 -0.0000
vn -1.0000 -0.0000 -0.0000
vn 0.6787 -0.0000 0.7344
vn 0.6785 -0.0000 0.7346
vn 0.6779 -0.0000 0.7351
vn 0.6499 -0.3174 0.6906
vn -0.6787 0.0001 0.7344
vn -0.6785 -0.0001 0.7346
vn -0.6779 -0.0002 0.7352
vn -0.6498 0.3174 0.6906
vn -0.6785 0.0002 0.7346
vn -0.0000 -0.7796 0.6263
vn -0.0000 0.7796 0.6263
vn 1.0000 0.0001 -0.0000
vn 0.6498 -0.3174 0.6906
vn -0.6785 0.0001 0.7346
vn -0.6787 -0.0001 0.7344
vn -0.6785 -0.0002 0.7346
vn -0.6779 0.0002 0.7352
vt 0.423306 0.728162
vt 0.131174 0.905871
vt 0.015831 0.728162
vt 0.015832 0.017327
vt 0.363593 0.195035
vt 0.015832 0.195035
vt 0.363554 0.372744
vt 0.015832 0.372744
vt 0.015831 0.550453
vt 0.423267 0.550453
vt 0.543859 0.554003
vt 0.505664 0.727346
vt 0.525561 0.550419
vt 0.624329 0.548364
vt 0.637641 0.726575
vt 0.624329 0.726575
vt 0.524054 0.729828
vt 0.486226 0.899992
vt 0.505664 0.727346
vt 0.624329 0.191114
vt 0.637641 0.367985
vt 0.624329 0.367985
vt 0.449152 0.902113
vt 0.452585 0.728162
vt 0.452585 0.905871
vt 0.423319 0.905871
vt 0.426751 0.902113
vt 0.426739 0.728161
vt 0.389439 0.021084
vt 0.392872 0.195035
vt 0.389439 0.195035
vt 0.363605 0.017327
vt 0.392872 0.017327
vt 0.367038 0.021084
vt 0.392872 0.372744
vt 0.389439 0.373413
vt 0.366987 0.372076
vt 0.367026 0.195036
vt 0.449152 0.551122
vt 0.452585 0.550453
vt 0.449152 0.728162
vt 0.426700 0.549784
vt 0.592666 0.726576
vt 0.579354 0.549703
vt 0.592666 0.549703
vt 0.524399 0.192711
vt 0.486166 0.366049
vt 0.506010 0.190230
vt 0.592666 0.369323
vt 0.579354 0.191114
vt 0.592666 0.191114
vt 0.579354 0.369323
vt 0.637641 0.900363
vt 0.624329 0.900363
vt 0.525471 0.017587
vt 0.543850 0.020067
vt 0.637641 0.548364
vt 0.075717 0.965041
vt 0.060491 0.962916
vt 0.062405 0.940524
vt 0.624329 0.017327
vt 0.637641 0.191114
vt 0.504464 0.369632
vt 0.592666 0.900363
vt 0.579354 0.726576
vt 0.579354 0.017327
vt 0.592666 0.017327
vt 0.743113 0.017327
vt 0.778294 0.472034
vt 0.743113 0.472034
vt 0.709767 0.472034
vt 0.671218 0.017327
vt 0.709767 0.017327
vt 0.937825 0.459014
vt 0.926512 0.866048
vt 0.926512 0.459014
vt 0.883536 0.961394
vt 0.894849 0.506687
vt 0.894849 0.961394
vt 0.485932 0.937385
vt 0.497245 0.979535
vt 0.484248 0.977693
vt 0.579124 0.977166
vt 0.577440 0.936858
vt 0.590436 0.935016
vt 0.672902 0.506687
vt 0.708083 0.913721
vt 0.672902 0.913721
vt 0.779978 0.913721
vt 0.741429 0.506687
vt 0.779978 0.506687
vt 0.982485 0.017327
vt 0.971172 0.415160
vt 0.971172 0.017327
vt 0.928196 0.424361
vt 0.939509 0.017327
vt 0.939509 0.424361
vt 0.017515 0.940524
vt 0.028828 0.982673
vt 0.015831 0.980832
vt 0.628242 0.977166
vt 0.626558 0.936858
vt 0.639555 0.935016
vt 0.848505 0.847646
vt 0.813325 0.449813
vt 0.848506 0.449813
vt 0.811641 0.017327
vt 0.850190 0.415160
vt 0.811641 0.415160
vt 0.972856 0.847646
vt 0.984169 0.449813
vt 0.984169 0.847646
vt 0.540221 0.979535
vt 0.528908 0.937385
vt 0.541905 0.939227
vt 0.813325 0.924449
vt 0.811641 0.884140
vt 0.824638 0.882299
vt 0.504605 0.902472
vt 0.525982 0.730088
vt 0.506532 0.902732
vt 0.526327 0.192971
vt 0.506382 0.370008
vt 0.545777 0.554379
vt 0.524054 0.729828
vt 0.639555 0.726575
vt 0.639555 0.900363
vt 0.637641 0.017327
vt 0.639555 0.191114
vt 0.639555 0.367985
vt 0.639555 0.368788
vt 0.639555 0.548364
vt 0.639555 0.548480
vt 0.107380 0.940524
vt 0.122606 0.942649
vt 0.120692 0.965041
vt 0.741429 0.017327
vt 0.778294 0.017327
vt 0.779978 0.472034
vt 0.671218 0.506687
vt 0.708083 0.506687
vt 0.709767 0.913721
vt 0.850190 0.847646
vt 0.813325 0.847646
vt 0.811641 0.449813
vt 0.893165 0.017327
vt 0.881853 0.472034
vt 0.881852 0.017327
vt 0.637641 0.548364
vt 0.579354 0.369323
vt 0.637641 0.367985
vt 0.075717 0.940524
vt 0.062405 0.965041
vt 0.060491 0.942649
vt 0.579354 0.900363
vt 0.579354 0.191114
vt 0.671218 0.472034
vt 0.937825 0.866048
vt 0.883536 0.506687
vt 0.484248 0.939227
vt 0.497245 0.937385
vt 0.485932 0.979535
vt 0.590436 0.977166
vt 0.577440 0.975324
vt 0.579124 0.935016
vt 0.741430 0.913721
vt 0.982485 0.415160
vt 0.928196 0.017327
vt 0.015831 0.942365
vt 0.028828 0.940524
vt 0.017515 0.982673
vt 0.639555 0.977166
vt 0.626558 0.975325
vt 0.628242 0.935016
vt 0.850190 0.017327
vt 0.972856 0.449813
vt 0.541905 0.977694
vt 0.528908 0.979535
vt 0.540221 0.937385
vt 0.824638 0.924449
vt 0.811641 0.922607
vt 0.813325 0.882299
vt 0.545777 0.020327
vt 0.639555 0.017327
vt 0.107380 0.965041
vt 0.120692 0.940524
vt 0.122606 0.962916
vt 0.741430 0.472034
vt 0.779978 0.017327
vt 0.671218 0.913721
vt 0.709767 0.506687
vt 0.850190 0.449813
vt 0.811641 0.847646
vt 0.893165 0.472034
s 0
g off
g Plane_Material.004
usemtl Material.004
f 17/1/1 2/2/1 3/3/1
f 1/4/1 11/5/1 6/6/1
f 6/6/1 13/7/1 5/8/1
f 13/7/1 4/9/1 5/8/1
f 15/10/1 3/3/1 4/9/1
f 64/11/1 48/12/1 65/13/1
f 30/14/2 47/15/2 22/16/2
f 45/17/1 50/18/1 48/19/1
f 26/20/3 62/21/3 28/22/3
f 19/23/1 18/24/1 10/25/1
f 19/23/1 9/26/1 21/27/1
f 21/27/1 17/1/1 22/28/1
f 24/29/1 12/30/1 23/31/1
f 24/29/1 7/32/1 8/33/1
f 25/34/1 11/5/1 7/32/1
f 23/31/1 14/35/1 27/36/1
f 28/37/1 11/5/1 26/38/1
f 29/39/1 14/35/1 16/40/1
f 28/37/1 15/10/1 13/7/1
f 29/39/1 18/24/1 20/41/1
f 22/28/1 15/10/1 30/42/1
f 20/43/4 63/44/4 29/45/4
f 52/46/1 61/47/1 57/48/1
f 27/49/4 51/50/4 23/51/4
f 29/45/5 59/52/5 27/49/5
f 22/16/6 49/53/6 21/54/6
f 52/46/1 55/55/1 54/56/1
f 28/22/7 66/57/7 30/14/7
f 24/58/8 54/59/8 56/60/8
f 25/61/9 58/62/9 26/20/9
f 60/63/1 65/13/1 61/47/1
f 19/64/4 46/65/4 20/43/4
f 23/51/4 53/66/4 24/67/4
f 67/68/1 73/69/1 72/70/1
f 33/71/10 32/72/10 31/73/10
f 76/74/8 37/75/8 35/76/8
f 74/77/11 32/78/11 34/79/11
f 68/80/4 32/81/4 70/82/4
f 71/83/12 73/84/12 34/85/12
f 75/86/1 81/87/1 80/88/1
f 37/89/10 36/90/10 35/91/10
f 84/92/8 41/93/8 39/94/8
f 82/95/11 36/96/11 38/97/11
f 76/98/4 36/99/4 78/100/4
f 79/101/12 81/102/12 38/103/12
f 83/104/1 89/105/1 88/106/1
f 41/107/10 40/108/10 39/109/10
f 90/110/11 40/111/11 42/112/11
f 84/113/4 40/114/4 86/115/4
f 87/116/12 89/117/12 42/118/12
f 43/119/13 46/120/13 44/121/13
f 54/56/14 51/122/14 52/46/14
f 60/63/15 51/122/15 59/123/15
f 64/11/16 59/123/16 63/124/16
f 45/125/14 63/124/14 46/120/14
f 49/53/17 48/126/17 50/127/17
f 56/128/18 57/129/18 58/62/18
f 62/21/19 57/129/19 61/130/19
f 66/57/20 61/131/20 65/132/20
f 47/15/21 65/133/21 48/126/21
f 21/134/11 50/135/11 44/136/11
f 72/70/22 68/137/22 67/68/22
f 70/138/23 74/139/23 73/69/23
f 80/88/22 76/140/22 75/86/22
f 78/141/23 82/142/23 81/87/23
f 88/106/22 84/143/22 83/104/22
f 86/144/23 90/145/23 89/105/23
f 68/146/8 33/147/8 31/148/8
f 17/1/1 9/26/1 2/2/1
f 1/4/1 7/32/1 11/5/1
f 6/6/1 11/5/1 13/7/1
f 13/7/1 15/10/1 4/9/1
f 15/10/1 17/1/1 3/3/1
f 64/11/1 45/125/1 48/12/1
f 30/14/2 66/149/2 47/15/2
f 45/17/1 43/119/1 50/18/1
f 26/20/3 58/62/3 62/21/3
f 19/23/1 20/41/1 18/24/1
f 19/23/1 10/25/1 9/26/1
f 21/27/1 9/26/1 17/1/1
f 24/29/1 8/33/1 12/30/1
f 24/29/1 25/34/1 7/32/1
f 25/34/1 26/38/1 11/5/1
f 23/31/1 12/30/1 14/35/1
f 28/37/1 13/7/1 11/5/1
f 29/39/1 27/36/1 14/35/1
f 28/37/1 30/42/1 15/10/1
f 29/39/1 16/40/1 18/24/1
f 22/28/1 17/1/1 15/10/1
f 20/43/4 46/65/4 63/44/4
f 52/46/1 60/63/1 61/47/1
f 27/49/4 59/150/4 51/50/4
f 29/45/5 63/44/5 59/52/5
f 22/16/6 47/15/6 49/53/6
f 52/46/1 57/48/1 55/55/1
f 28/22/7 62/151/7 66/57/7
f 56/60/8 25/152/8 24/58/8
f 24/58/8 53/153/8 54/59/8
f 54/59/8 55/154/8 56/60/8
f 25/61/9 56/128/9 58/62/9
f 60/63/1 64/11/1 65/13/1
f 19/64/4 44/155/4 46/65/4
f 23/51/4 51/156/4 53/66/4
f 67/68/1 70/138/1 73/69/1
f 33/71/10 34/157/10 32/72/10
f 76/74/8 79/158/8 37/75/8
f 74/77/11 69/159/11 32/78/11
f 70/82/4 67/160/4 68/80/4
f 68/80/4 31/161/4 32/81/4
f 32/81/24 69/162/24 70/82/24
f 34/85/12 33/163/12 71/83/12
f 71/83/12 72/164/12 73/84/12
f 73/84/6 74/165/6 34/85/6
f 75/86/1 78/141/1 81/87/1
f 37/89/10 38/166/10 36/90/10
f 84/92/8 87/167/8 41/93/8
f 82/95/11 77/168/11 36/96/11
f 78/100/4 75/169/4 76/98/4
f 76/98/4 35/170/4 36/99/4
f 36/99/4 77/171/4 78/100/4
f 38/103/12 37/172/12 79/101/12
f 79/101/12 80/173/12 81/102/12
f 81/102/12 82/174/12 38/103/12
f 83/104/1 86/144/1 89/105/1
f 41/107/10 42/175/10 40/108/10
f 90/110/11 85/176/11 40/111/11
f 86/115/4 83/177/4 84/113/4
f 84/113/4 39/178/4 40/114/4
f 40/114/4 85/179/4 86/115/4
f 42/118/12 41/180/12 87/116/12
f 87/116/12 88/181/12 89/117/12
f 89/117/12 90/182/12 42/118/12
f 43/119/14 45/17/14 46/120/14
f 54/56/13 53/183/13 51/122/13
f 60/63/14 52/46/14 51/122/14
f 64/11/25 60/63/25 59/123/25
f 45/125/15 64/11/15 63/124/15
f 49/53/26 47/15/26 48/126/26
f 56/128/27 55/184/27 57/129/27
f 62/21/28 58/62/28 57/129/28
f 66/57/20 62/151/20 61/131/20
f 47/15/29 66/149/29 65/133/29
f 44/136/11 19/185/11 21/134/11
f 21/134/11 49/186/11 50/135/11
f 50/135/11 43/187/11 44/136/11
f 72/70/22 71/188/22 68/137/22
f 70/138/23 69/189/23 74/139/23
f 80/88/22 79/190/22 76/140/22
f 78/141/23 77/191/23 82/142/23
f 88/106/22 87/192/22 84/143/22
f 86/144/23 85/193/23 90/145/23
f 68/146/8 71/194/8 33/147/8
