# Blender 4.2.15 LTS
# www.blender.org
mtllib PuertaAlienPanelDerecho.mtl
g Plane.001_Malla
v 0.770709 -1.189479 -1.450064
v -0.751046 6.312472 -1.450064
v 0.770709 0.310911 -1.450064
v 0.770709 1.811302 -1.450064
v 0.770709 3.311692 -1.450064
v 0.770709 4.812082 -1.450064
v -4.206837 -1.189479 -1.450064
v -4.566035 -1.189479 -1.450064
v -3.473962 6.312472 -1.450064
v -3.833159 6.312472 -1.450064
v -4.247581 0.310916 -1.450064
v -4.566035 0.310911 -1.450064
v -4.247100 1.816788 -1.450064
v -4.566035 1.811302 -1.450064
v -3.514228 3.317171 -1.450064
v -3.833159 3.311692 -1.450064
v -3.473806 4.812082 -1.450064
v -3.833159 4.812082 -1.450064
v -3.514706 4.812078 -1.450064
v -3.792260 6.281680 -1.450064
v -3.514858 6.281680 -1.450064
v -3.792260 4.812082 -1.450064
v -4.525136 -1.158686 -1.450064
v -4.247734 -1.158686 -1.450064
v -4.206682 0.310911 -1.450064
v -4.525136 0.310911 -1.450064
v -4.206203 1.811302 -1.450064
v -4.525136 1.805819 -1.450064
v -3.473327 3.311692 -1.450064
v -3.792260 3.306210 -1.450064
v -3.547546 3.908906 -1.469870
v -3.547546 4.265108 -1.469870
v 0.143448 3.908906 -1.469870
v 0.143448 4.265108 -1.469870
v -4.237023 1.873140 -1.469870
v -4.237023 2.229342 -1.469870
v 0.143448 1.873140 -1.469870
v 0.143448 2.229342 -1.469870
v -4.317906 -0.244713 -1.469870
v -4.317906 0.111489 -1.469870
v 0.143448 -0.244713 -1.469870
v 0.143448 0.111489 -1.469870
v -3.792260 4.812082 -1.299166
v -3.766007 4.812082 -1.274913
v -3.540959 4.812078 -1.274913
v -3.514706 4.812078 -1.299166
v -3.541097 6.281680 -1.274913
v -3.514858 6.281680 -1.299166
v -3.792260 6.281680 -1.299166
v -3.766022 6.281680 -1.274913
v -4.498897 -1.158686 -1.274913
v -4.525136 -1.158686 -1.299166
v -4.247734 -1.158686 -1.299166
v -4.273973 -1.158686 -1.274913
v -4.247581 0.310916 -1.299166
v -4.273834 0.310916 -1.274913
v -4.498882 0.310912 -1.274913
v -4.525136 0.310911 -1.299166
v -4.247100 1.816788 -1.299166
v -4.273398 1.815750 -1.274913
v -4.498838 1.806857 -1.274913
v -4.525136 1.805819 -1.299166
v -3.514228 3.317171 -1.299166
v -3.540525 3.316134 -1.274913
v -3.765963 3.307246 -1.274913
v -3.792260 3.306210 -1.299166
v -3.547546 3.908906 -1.340987
v -3.547546 3.925470 -1.320366
v -3.547546 4.248544 -1.320366
v -3.547546 4.265108 -1.340987
v 0.143448 3.925470 -1.320366
v 0.143448 3.908906 -1.340987
v 0.143448 4.265108 -1.340987
v 0.143448 4.248544 -1.320366
v -4.237023 1.873140 -1.340987
v -4.237023 1.889705 -1.320366
v -4.237023 2.212778 -1.320366
v -4.237023 2.229342 -1.340987
v 0.143448 1.889705 -1.320366
v 0.143448 1.873140 -1.340987
v 0.143448 2.229342 -1.340987
v 0.143448 2.212778 -1.320366
v -4.317906 -0.244713 -1.340987
v -4.317906 -0.228148 -1.320366
v -4.317906 0.094925 -1.320366
v -4.317906 0.111489 -1.340987
v 0.143448 -0.228148 -1.320366
v 0.143448 -0.244713 -1.340987
v 0.143448 0.111489 -1.340987
v 0.143448 0.094925 -1.320366
vn -0.0000 -0.0000 1.0000
vn 1.0000 0.0003 -0.0000
vn -0.0000 1.0000 -0.0000
vn -1.0000 -0.0000 -0.0000
vn 1.0000 -0.0001 -0.0000
vn -0.8985 0.4389 -0.0000
vn 1.0000 -0.0003 -0.0000
vn 1.0000 0.0001 -0.0000
vn 0.8985 -0.4389 -0.0000
vn -0.0000 -1.0000 -0.0000
vn -0.0000 -0.0000 -1.0000
vn 1.0000 -0.0000 -0.0000
vn -0.6788 -0.0000 0.7343
vn -0.6786 -0.0000 0.7345
vn -0.6779 -0.0000 0.7351
vn -0.6496 0.3173 0.6908
vn 0.6786 0.0001 0.7345
vn 0.6788 -0.0001 0.7343
vn 0.6786 -0.0002 0.7345
vn 0.6496 -0.3173 0.6908
vn 0.6779 0.0002 0.7351
vn -0.0000 -0.7796 0.6263
vn -0.0000 0.7796 0.6263
vn -0.6788 -0.0000 0.7344
vn 0.6788 0.0001 0.7344
vn 0.6786 -0.0001 0.7345
vn 0.6780 -0.0002 0.7351
vn 0.6786 0.0002 0.7345
vt 0.451435 0.178707
vt 0.045228 0.341537
vt 0.045189 0.178707
vt 0.105005 0.667198
vt 0.327232 0.830029
vt 0.104992 0.830029
vt 0.451435 0.341537
vt 0.105044 0.504368
vt 0.451435 0.667198
vt 0.623682 0.175214
vt 0.636823 0.337295
vt 0.623682 0.337295
vt 0.524649 0.016138
vt 0.523376 0.176677
vt 0.505146 0.174428
vt 0.031111 0.884447
vt 0.015859 0.882303
vt 0.017971 0.861781
vt 0.504810 0.666575
vt 0.542878 0.507696
vt 0.523040 0.668825
vt 0.485329 0.824867
vt 0.523040 0.668825
vt 0.503549 0.827116
vt 0.451435 0.015876
vt 0.045176 0.015876
vt 0.101654 0.826687
vt 0.079013 0.826687
vt 0.075675 0.830029
vt 0.075675 0.667198
vt 0.079013 0.667198
vt 0.019197 0.019218
vt 0.041838 0.019218
vt 0.041850 0.178707
vt 0.015859 0.178707
vt 0.015859 0.015876
vt 0.041890 0.342133
vt 0.019197 0.340942
vt 0.019197 0.178707
vt 0.101706 0.504962
vt 0.075675 0.504368
vt 0.015859 0.341537
vt 0.101667 0.667198
vt 0.079013 0.503773
vt 0.591965 0.175214
vt 0.578824 0.015876
vt 0.591965 0.015876
vt 0.623682 0.665845
vt 0.636823 0.825184
vt 0.623682 0.825184
vt 0.591965 0.665846
vt 0.578824 0.503763
vt 0.591965 0.503763
vt 0.578824 0.338486
vt 0.591965 0.338485
vt 0.578824 0.175214
vt 0.591965 0.825184
vt 0.578824 0.665846
vt 0.623682 0.502572
vt 0.636823 0.665845
vt 0.524734 0.504485
vt 0.503412 0.338763
vt 0.623682 0.015876
vt 0.636823 0.175214
vt 0.636823 0.502572
vt 0.527889 0.859130
vt 0.543141 0.861274
vt 0.541029 0.881796
vt 0.848136 0.349209
vt 0.813112 0.650791
vt 0.813112 0.349209
vt 0.811317 0.317457
vt 0.849932 0.015876
vt 0.849932 0.317457
vt 0.926386 0.405545
vt 0.937609 0.763461
vt 0.926386 0.763461
vt 0.984141 0.317457
vt 0.972918 0.015876
vt 0.984141 0.015876
vt 0.740984 0.832038
vt 0.742780 0.795213
vt 0.754003 0.833834
vt 0.894668 0.847051
vt 0.881649 0.845255
vt 0.883445 0.808431
vt 0.777804 0.015876
vt 0.742780 0.373793
vt 0.742780 0.015876
vt 0.740984 0.763461
vt 0.779599 0.405545
vt 0.779599 0.763461
vt 0.894668 0.776679
vt 0.883445 0.412153
vt 0.894668 0.412153
vt 0.939405 0.373793
vt 0.928181 0.015876
vt 0.939405 0.015876
vt 0.638935 0.858732
vt 0.637139 0.895556
vt 0.625915 0.856936
vt 0.496171 0.897751
vt 0.483152 0.895955
vt 0.484948 0.859130
vt 0.707471 0.412153
vt 0.672448 0.776679
vt 0.672448 0.412153
vt 0.670652 0.380401
vt 0.709267 0.015876
vt 0.709267 0.380401
vt 0.894668 0.380401
vt 0.883445 0.015876
vt 0.894668 0.015876
vt 0.670652 0.845255
vt 0.672448 0.808431
vt 0.683671 0.847051
vt 0.589731 0.895557
vt 0.576712 0.893761
vt 0.578508 0.856936
vt 0.578824 0.175214
vt 0.576712 0.015876
vt 0.576712 0.825184
vt 0.576712 0.665846
vt 0.576712 0.503763
vt 0.576712 0.502956
vt 0.576712 0.338485
vt 0.576712 0.338373
vt 0.576712 0.175214
vt 0.636823 0.015876
vt 0.638935 0.175214
vt 0.638935 0.665845
vt 0.638935 0.825184
vt 0.638935 0.502685
vt 0.638935 0.338102
vt 0.638935 0.502572
vt 0.638935 0.337295
vt 0.485269 0.335552
vt 0.822540 0.682543
vt 0.824336 0.984124
vt 0.822540 0.984124
vt 0.972918 0.317457
vt 0.971122 0.015876
vt 0.937609 0.405545
vt 0.939405 0.763461
vt 0.928181 0.373793
vt 0.926386 0.015876
vt 0.883445 0.776679
vt 0.881649 0.412153
vt 0.883445 0.380401
vt 0.881649 0.015876
vt 0.811317 0.682543
vt 0.811317 0.984124
vt 0.451435 0.504368
vt 0.542869 0.018387
vt 0.031111 0.861781
vt 0.017971 0.884447
vt 0.015859 0.863925
vt 0.636823 0.665845
vt 0.578824 0.665846
vt 0.578824 0.503763
vt 0.578824 0.338485
vt 0.578824 0.825184
vt 0.527889 0.881796
vt 0.541029 0.859130
vt 0.543141 0.879652
vt 0.848136 0.650791
vt 0.811317 0.015876
vt 0.742780 0.833834
vt 0.740984 0.797009
vt 0.754003 0.795213
vt 0.894668 0.808431
vt 0.883445 0.847051
vt 0.881649 0.810227
vt 0.777804 0.373793
vt 0.740984 0.405545
vt 0.637139 0.856936
vt 0.638935 0.893760
vt 0.625915 0.895556
vt 0.496171 0.859130
vt 0.484948 0.897751
vt 0.483152 0.860926
vt 0.707471 0.776679
vt 0.670652 0.015876
vt 0.672448 0.847051
vt 0.670652 0.810227
vt 0.683671 0.808431
vt 0.589731 0.856936
vt 0.578508 0.895557
vt 0.576712 0.858732
vt 0.638935 0.015876
vt 0.824336 0.682543
vt 0.971122 0.317457
vt 0.939405 0.405545
vt 0.926386 0.373793
vt 0.881649 0.776679
vt 0.881649 0.380401
s 0
g off
g Plane.001_Material.002
usemtl Material.002
f 3/1/1 27/2/1 25/3/1
f 17/4/1 2/5/1 9/6/1
f 4/7/1 29/8/1 27/2/1
f 29/8/1 6/9/1 17/4/1
f 19/10/2 63/11/2 15/12/2
f 47/13/1 44/14/1 45/15/1
f 20/16/3 50/17/3 48/18/3
f 56/19/1 61/20/1 57/21/1
f 54/22/1 57/23/1 51/24/1
f 1/25/1 25/3/1 7/26/1
f 21/27/1 17/4/1 9/6/1
f 20/28/1 9/6/1 10/29/1
f 20/28/1 18/30/1 22/31/1
f 23/32/1 7/26/1 24/33/1
f 24/33/1 25/3/1 11/34/1
f 23/32/1 12/35/1 8/36/1
f 11/34/1 27/2/1 13/37/1
f 28/38/1 12/35/1 26/39/1
f 15/40/1 27/2/1 29/8/1
f 28/38/1 16/41/1 14/42/1
f 15/40/1 17/4/1 19/43/1
f 22/31/1 16/41/1 30/44/1
f 22/45/4 49/46/4 20/47/4
f 11/48/5 53/49/5 24/50/5
f 26/51/4 62/52/4 28/53/4
f 28/53/6 66/54/6 30/55/6
f 30/55/4 43/56/4 22/45/4
f 23/57/4 58/58/4 26/51/4
f 13/59/7 55/60/7 11/48/7
f 60/61/1 65/62/1 61/20/1
f 21/63/8 46/64/8 19/10/8
f 15/12/9 59/65/9 13/59/9
f 24/66/10 54/67/10 52/68/10
f 74/69/1 68/70/1 71/71/1
f 32/72/11 33/73/11 31/74/11
f 37/75/10 75/76/10 35/77/10
f 32/78/3 73/79/3 34/80/3
f 68/81/4 70/82/4 31/83/4
f 34/84/12 74/85/12 72/86/12
f 82/87/1 76/88/1 79/89/1
f 36/90/11 37/91/11 35/92/11
f 41/93/10 83/94/10 39/95/10
f 36/96/3 81/97/3 38/98/3
f 76/99/4 78/100/4 35/101/4
f 38/102/12 82/103/12 80/104/12
f 90/105/1 84/106/1 87/107/1
f 40/108/11 41/109/11 39/110/11
f 40/111/3 89/112/3 42/113/3
f 84/114/4 86/115/4 39/116/4
f 42/117/12 90/118/12 88/119/12
f 43/120/13 50/121/13 49/46/13
f 58/58/14 51/122/14 57/123/14
f 62/52/15 57/123/15 61/124/15
f 66/54/16 61/125/16 65/126/16
f 43/56/14 65/127/14 44/128/14
f 48/129/17 45/130/17 46/64/17
f 53/49/18 56/131/18 54/132/18
f 55/60/19 60/133/19 56/131/19
f 59/65/20 64/134/20 60/135/20
f 63/11/21 45/130/21 64/136/21
f 64/137/1 44/14/1 65/62/1
f 72/138/22 68/139/22 67/140/22
f 70/141/23 74/142/23 73/79/23
f 80/143/22 76/144/22 75/76/22
f 78/145/23 82/146/23 81/97/23
f 88/147/22 84/148/22 83/94/22
f 86/149/23 90/150/23 89/112/23
f 33/151/10 67/140/10 31/152/10
f 3/1/1 4/7/1 27/2/1
f 17/4/1 6/9/1 2/5/1
f 4/7/1 5/153/1 29/8/1
f 29/8/1 5/153/1 6/9/1
f 19/10/2 46/64/2 63/11/2
f 47/13/1 50/154/1 44/14/1
f 48/18/3 21/155/3 20/16/3
f 20/16/3 49/156/3 50/17/3
f 50/17/3 47/157/3 48/18/3
f 56/19/1 60/61/1 61/20/1
f 54/22/1 56/19/1 57/23/1
f 1/25/1 3/1/1 25/3/1
f 21/27/1 19/43/1 17/4/1
f 20/28/1 21/27/1 9/6/1
f 20/28/1 10/29/1 18/30/1
f 23/32/1 8/36/1 7/26/1
f 24/33/1 7/26/1 25/3/1
f 23/32/1 26/39/1 12/35/1
f 11/34/1 25/3/1 27/2/1
f 28/38/1 14/42/1 12/35/1
f 15/40/1 13/37/1 27/2/1
f 28/38/1 30/44/1 16/41/1
f 15/40/1 29/8/1 17/4/1
f 22/31/1 18/30/1 16/41/1
f 22/45/4 43/120/4 49/46/4
f 11/48/5 55/158/5 53/49/5
f 26/51/4 58/159/4 62/52/4
f 28/53/6 62/160/6 66/54/6
f 30/55/4 66/161/4 43/56/4
f 23/57/4 52/162/4 58/58/4
f 13/59/7 59/65/7 55/60/7
f 60/61/1 64/137/1 65/62/1
f 21/63/8 48/129/8 46/64/8
f 15/12/9 63/11/9 59/65/9
f 52/68/10 23/163/10 24/66/10
f 24/66/10 53/164/10 54/67/10
f 54/67/10 51/165/10 52/68/10
f 74/69/1 69/166/1 68/70/1
f 32/72/11 34/167/11 33/73/11
f 37/75/10 80/143/10 75/76/10
f 32/78/3 70/141/3 73/79/3
f 31/83/4 67/168/4 68/81/4
f 68/81/4 69/169/4 70/82/4
f 70/82/4 32/170/4 31/83/4
f 72/86/12 33/171/12 34/84/12
f 34/84/12 73/172/12 74/85/12
f 74/85/12 71/173/12 72/86/12
f 82/87/1 77/174/1 76/88/1
f 36/90/11 38/175/11 37/91/11
f 41/93/10 88/147/10 83/94/10
f 36/96/3 78/145/3 81/97/3
f 35/101/4 75/176/4 76/99/4
f 76/99/4 77/177/4 78/100/4
f 78/100/4 36/178/4 35/101/4
f 80/104/12 37/179/12 38/102/12
f 38/102/12 81/180/12 82/103/12
f 82/103/12 79/181/12 80/104/12
f 90/105/1 85/182/1 84/106/1
f 40/108/11 42/183/11 41/109/11
f 40/111/3 86/149/3 89/112/3
f 39/116/4 83/184/4 84/114/4
f 84/114/4 85/185/4 86/115/4
f 86/115/4 40/186/4 39/116/4
f 88/119/12 41/187/12 42/117/12
f 42/117/12 89/188/12 90/118/12
f 90/118/12 87/189/12 88/119/12
f 43/120/14 44/128/14 50/121/14
f 58/58/24 52/162/24 51/122/24
f 62/52/14 58/159/14 57/123/14
f 66/54/16 62/160/16 61/125/16
f 43/56/15 66/161/15 65/127/15
f 48/129/25 47/190/25 45/130/25
f 53/49/26 55/158/26 56/131/26
f 55/60/27 59/65/27 60/133/27
f 59/65/20 63/11/20 64/134/20
f 63/11/28 46/64/28 45/130/28
f 64/137/1 45/15/1 44/14/1
f 72/138/22 71/191/22 68/139/22
f 70/141/23 69/192/23 74/142/23
f 80/143/22 79/193/22 76/144/22
f 78/145/23 77/194/23 82/146/23
f 88/147/22 87/195/22 84/148/22
f 86/149/23 85/196/23 90/150/23
f 33/151/10 72/138/10 67/140/10
